<?xml version="1.0" encoding="utf-8"?>
<!-- Generator: Fusion 360, Shaper Origin Export Add-In, Version 1.7.0  -->
<svg xmlns="http://www.w3.org/2000/svg" xmlns:xlink="http://www.w3.org/1999/xlink" xmlns:shaper="http://www.shapertools.com/namespaces/shaper" shaper:fusionaddin="version:1.7.0" width="5.2000002cm" height="4cm" version="1.1" x="0cm" y="0cm" viewBox="0 0 5.2000002 4" enable-background="new 0 0 5.2000002 4" xml:space="preserve"><path d="M-2.6000001,1.5 L-2.6000001,-1.5 A0.5,0.5 180 0,1 -2.1000001,-2 L2.1000001,-2 A0.5,0.5 270 0,1 2.6000001,-1.5 L2.6000001,1.5 A0.5,0.5 0 0,1 2.1000001,2 L-2.1000001,2 A0.5,0.5 90 0,1 -2.6000001,1.5z" transform="matrix(1,0,0,-1,2.6000001,2)" fill="rgb(0,0,0)" stroke-linecap="round" stroke-linejoin="round" /><path d="M1,-0.2 L1,0.2 1.4,0.2 1.4,-0.2 1,-0.2z" transform="matrix(1,0,0,-1,2.6000001,2)" fill="rgb(255,255,255)" stroke="rgb(0,0,0)" stroke-width="0.0010cm" stroke-linecap="round" stroke-linejoin="round" /><path d="M0.6,-0.2 L0.2,-0.2 0.2,0.2 0.6,0.2 0.6,-0.2z" transform="matrix(1,0,0,-1,2.6000001,2)" fill="rgb(255,255,255)" stroke="rgb(0,0,0)" stroke-width="0.0010cm" stroke-linecap="round" stroke-linejoin="round" /><path d="M2.2,-0.2 L1.8,-0.2 1.8,0.2 2.2,0.2 2.2,-0.2z" transform="matrix(1,0,0,-1,2.6000001,2)" fill="rgb(255,255,255)" stroke="rgb(0,0,0)" stroke-width="0.0010cm" stroke-linecap="round" stroke-linejoin="round" /><path d="M-2.2,-0.2 L-2.2,0.2 -1.8,0.2 -1.8,-0.2 -2.2,-0.2z" transform="matrix(1,0,0,-1,2.6000001,2)" fill="rgb(255,255,255)" stroke="rgb(0,0,0)" stroke-width="0.0010cm" stroke-linecap="round" stroke-linejoin="round" /><path d="M-1,-0.2 L-1.4,-0.2 -1.4,0.2 -1,0.2 -1,-0.2z" transform="matrix(1,0,0,-1,2.6000001,2)" fill="rgb(255,255,255)" stroke="rgb(0,0,0)" stroke-width="0.0010cm" stroke-linecap="round" stroke-linejoin="round" /><path d="M-0.2,-0.2 L-0.6,-0.2 -0.6,0.2 -0.2,0.2 -0.2,-0.2z" transform="matrix(1,0,0,-1,2.6000001,2)" fill="rgb(255,255,255)" stroke="rgb(0,0,0)" stroke-width="0.0010cm" stroke-linecap="round" stroke-linejoin="round" /></svg>