<?xml version="1.0" encoding="utf-8"?>
<!-- Generator: Fusion 360, Shaper Origin Export Add-In, Version 1.7.0  -->
<svg xmlns="http://www.w3.org/2000/svg" xmlns:xlink="http://www.w3.org/1999/xlink" xmlns:shaper="http://www.shapertools.com/namespaces/shaper" shaper:fusionaddin="version:1.7.0" width="29cm" height="9.5cm" version="1.1" x="0cm" y="0cm" viewBox="0 0 29 9.5" enable-background="new 0 0 29 9.5" xml:space="preserve"><path d="M9.3,4.35 L9.3,4.75 -9.3,4.75 -9.3,4.35 -9.7,4.35 -9.7,4.75 -10.1,4.75 -10.1,4.35 -10.5,4.35 -10.5,4.75 -10.9,4.75 -10.9,4.35 -11.3,4.35 -11.3,4.75 -11.7,4.75 -11.7,4.35 -12.1,4.35 -12.1,4.75 -12.5,4.75 -12.5,4.35 -12.9,4.35 -12.9,4.75 -13.3,4.75 -13.3,4.35 -13.7,4.35 -13.7,4.75 -14.1,4.75 -14.1,4.35 -14.5,4.35 -14.5,-4.25 A0.5,0.5 180 0,1 -14,-4.75 L14,-4.75 A0.5,0.5 270 0,1 14.5,-4.25 L14.5,4.35 14.1,4.35 14.1,4.75 13.7,4.75 13.7,4.35 13.3,4.35 13.3,4.75 12.9,4.75 12.9,4.35 12.5,4.35 12.5,4.75 12.1,4.75 12.1,4.35 11.7,4.35 11.7,4.75 11.3,4.75 11.3,4.35 10.9,4.35 10.9,4.75 10.5,4.75 10.5,4.35 10.1,4.35 10.1,4.75 9.7,4.75 9.7,4.35 9.3,4.35z" transform="matrix(1,0,0,-1,14.5,4.75)" fill="rgb(0,0,0)" stroke-linecap="round" stroke-linejoin="round" /></svg>